<?xml version="1.0" standalone="no"?>
<!DOCTYPE svg PUBLIC "-//W3C//DTD SVG 20010904//EN"
 "http://www.w3.org/TR/2001/REC-SVG-20010904/DTD/svg10.dtd">
<svg version="1.0" xmlns="http://www.w3.org/2000/svg"
 width="920.000000pt" height="920.000000pt" viewBox="0 0 920.000000 920.000000"
 preserveAspectRatio="xMidYMid meet">
<metadata>
Created by potrace 1.14, written by Peter Selinger 2001-2017
</metadata>
<g transform="translate(0.000000,920.000000) scale(0.100000,-0.100000)"
fill="#000000" stroke="none">
<path d="M4358 9195 c-2 -1 -48 -6 -103 -9 -55 -4 -116 -8 -135 -11 -19 -2
-55 -7 -80 -10 -25 -2 -60 -7 -78 -9 -18 -3 -52 -8 -75 -11 -23 -3 -98 -17
-167 -30 -69 -14 -135 -27 -146 -29 -41 -8 -295 -77 -322 -87 -15 -6 -34 -12
-42 -14 -38 -8 -261 -89 -365 -132 -171 -71 -430 -200 -552 -273 -36 -22 -68
-40 -71 -40 -3 0 -20 -11 -38 -25 -18 -14 -35 -25 -38 -25 -3 0 -46 -28 -96
-62 -50 -35 -99 -67 -108 -73 -9 -5 -19 -12 -22 -15 -3 -3 -50 -39 -105 -80
-91 -69 -178 -140 -280 -230 -64 -56 -325 -319 -392 -395 -60 -69 -181 -217
-216 -265 -92 -130 -111 -156 -117 -160 -5 -4 -86 -129 -115 -178 -5 -9 -26
-44 -47 -77 -86 -142 -258 -480 -258 -508 0 -8 -7 -20 -15 -27 -8 -7 -15 -20
-15 -30 0 -9 -3 -20 -7 -24 -4 -3 -12 -21 -19 -39 -6 -17 -28 -77 -49 -132
-30 -83 -46 -128 -60 -175 -1 -3 -4 -12 -8 -20 -8 -20 -66 -220 -72 -245 -2
-11 -17 -78 -34 -150 -16 -71 -32 -146 -35 -165 -3 -19 -8 -46 -10 -60 -7 -41
-25 -161 -31 -215 -3 -27 -8 -63 -10 -80 -30 -224 -25 -810 9 -1050 3 -16 8
-52 11 -80 4 -27 8 -59 10 -70 2 -11 6 -36 9 -55 3 -19 8 -46 11 -60 3 -14 8
-41 11 -60 3 -19 12 -62 20 -95 8 -33 17 -71 20 -85 19 -95 126 -451 154 -515
5 -11 21 -50 34 -88 56 -150 223 -499 292 -608 13 -21 24 -41 24 -43 0 -8 156
-250 210 -327 54 -75 201 -268 223 -291 7 -7 39 -45 72 -83 60 -71 326 -340
400 -406 156 -139 351 -288 526 -403 63 -42 119 -80 126 -86 7 -5 15 -10 18
-10 3 0 22 -11 43 -23 131 -83 434 -235 607 -304 226 -91 518 -185 675 -217
14 -3 68 -15 120 -26 52 -11 109 -23 125 -25 17 -3 44 -8 60 -12 17 -3 41 -7
55 -9 14 -1 25 -3 25 -4 0 -2 37 -6 115 -14 30 -3 71 -7 90 -10 178 -27 756
-28 957 -1 92 12 121 15 163 20 78 8 148 21 290 51 63 14 124 27 135 28 34 6
178 44 223 60 23 8 42 13 42 10 0 -2 9 0 21 6 11 6 28 13 37 15 39 8 285 96
377 135 11 4 35 14 53 22 17 7 32 16 32 19 0 3 6 6 13 6 7 0 87 36 177 81 353
174 697 404 995 665 76 67 335 325 400 398 22 25 54 61 72 81 17 20 72 89 122
154 50 66 96 125 101 131 6 7 50 73 99 145 104 157 179 284 252 428 30 58 57
107 61 108 5 2 8 9 8 16 0 7 8 30 19 52 105 220 203 488 276 758 13 50 27 102
29 116 2 14 5 26 7 28 1 1 2 10 3 20 1 9 5 26 9 37 3 11 8 32 11 48 3 15 7 35
10 45 6 21 18 88 21 122 1 14 3 25 4 25 1 0 4 14 6 30 2 17 7 48 10 70 7 43
11 80 19 160 28 283 29 721 1 965 -21 183 -45 340 -70 450 -8 36 -17 76 -19
90 -2 14 -8 34 -12 44 -4 10 -8 28 -9 40 -1 12 -4 28 -7 36 -3 8 -16 53 -28
100 -27 98 -96 316 -110 345 -5 11 -25 61 -43 110 -32 83 -69 168 -118 269
-10 22 -19 45 -19 52 0 7 -3 14 -7 16 -5 2 -23 33 -41 69 -73 148 -279 486
-356 584 -8 11 -57 74 -107 140 -51 66 -97 125 -103 131 -6 6 -33 38 -61 70
-64 75 -372 383 -450 449 -70 60 -210 172 -249 200 -32 23 -96 71 -111 83 -30
24 -245 162 -254 162 -5 0 -11 4 -13 8 -4 10 -164 102 -177 102 -5 0 -11 3
-13 8 -7 17 -360 184 -503 239 -49 18 -99 38 -110 43 -16 7 -84 30 -105 35 -3
1 -13 5 -22 8 -42 16 -54 20 -64 22 -6 2 -49 14 -96 29 -209 64 -563 136 -738
151 -25 3 -63 7 -85 9 -128 15 -186 18 -437 21 -152 2 -278 2 -280 0z"/>
</g>
</svg>
